<svg xmlns="http://www.w3.org/2000/svg" viewBox="0 0 905 745.64"><defs><style>.cls-1{fill:#fff;}</style></defs><title>tweelo_logo</title><g id="Layer_2" data-name="Layer 2"><g id="Layer_1-2" data-name="Layer 1"><path class="cls-1" d="M807.8,304.72S600.06,676.58,48,40.52c0,0-90,111,54,252,0,0-67.56,6-81.79-24,0,0-23.22,105,150.8,180,0,0-30,24-84,12,0,0,36,105,174,132,0,0-111,84-261,78C0,670.58,619.5,992,807.8,304.72Z"/><path class="cls-1" d="M904.16,89.61c-8.07,11.47-100.27,25.63-100.27,25.63,63.67-39.95,75.68-99.4,75.68-99.4-21.31,23.9-117,39.88-117,39.88A193.35,193.35,0,0,0,626.57,0c-107.13,0-194,86.85-194,194A195.06,195.06,0,0,0,436,230.56v0s-129-9-198-51c0,0,140.73,171.87,343.32,203.11A194.3,194.3,0,0,0,626.57,388q6.9,0,13.68-.49h.08c100.71-7.06,180.22-91,180.22-193.5,0-4.88-.18-9.73-.54-14.52h0C860.46,154.57,912.23,78.13,904.16,89.61ZM691.3,151.34a33,33,0,1,1,33-33A33,33,0,0,1,691.3,151.34Z"/></g></g></svg>